# Wavefront OBJ exported by MilkShape 3D

v -0.696380 0.000456 0.750522
v -0.696380 0.000456 0.000000
v 0.696380 0.000456 0.000000
v 0.448605 0.000456 0.994344
v 0.696380 0.000456 0.750522
v -0.448605 0.000456 0.994344
v -0.448605 0.645326 0.994344
v 0.448605 0.645326 0.994344
v 0.696380 0.645326 0.750522
v 0.696380 0.645326 0.000000
v -0.696380 0.645326 0.000000
v -0.696380 0.645326 0.750522
v 0.448605 0.000456 -0.994343
v 0.696380 0.000456 -0.750521
v -0.696380 0.000456 -0.750521
v -0.448605 0.000456 -0.994343
v 0.696380 0.645326 -0.750521
v 0.448605 0.645326 -0.994343
v -0.448605 0.645326 -0.994343
v -0.696380 0.645326 -0.750521
# 20 vertices

vt 0.707200 0.690600
vt 0.707200 0.919600
vt 0.289100 0.919600
vt 0.363500 0.616200
vt 0.289100 0.690600
vt 0.632800 0.616200
vt 0.632800 0.414700
vt 0.363500 0.414700
vt 0.289200 0.340400
vt 0.289200 0.111500
vt 0.707100 0.111500
vt 0.707000 0.340400
vt 0.087800 0.340400
vt 0.087800 0.111500
vt 0.908500 0.111500
vt 0.908500 0.340400
vt 0.087800 0.414800
vt 0.289300 0.414800
vt 0.707000 0.414800
vt 0.908500 0.414800
# 20 texture coordinates

vn 0.000000 -1.000000 0.000000
vn 0.000000 1.000000 0.000000
vn 0.000000 0.000000 1.000000
vn 1.000000 0.000000 0.000000
vn -1.000000 0.000000 0.000000
vn -0.860031 0.000000 0.510242
vn -0.966909 0.000000 0.255121
vn 0.701398 0.000000 0.712770
vn -0.701398 0.000000 0.712770
vn 0.000000 0.000000 -1.000000
vn -0.966909 0.000000 -0.255121
vn -0.860031 0.000000 -0.510242
vn 0.701398 0.000000 -0.712770
vn -0.701398 0.000000 -0.712770
# 14 normals

g Box001
s 2
f 1/1/1 2/2/1 3/3/1
f 1/1/1 3/3/1 4/4/1
f 3/3/1 5/5/1 4/4/1
f 6/6/1 1/1/1 4/4/1
s 4
f 7/7/2 8/8/2 9/9/2
f 7/7/2 9/9/2 10/10/2
f 7/7/2 10/10/2 11/11/2
f 7/7/2 11/11/2 12/12/2
s 8
f 6/6/3 4/4/3 8/8/3
f 6/6/3 8/8/3 7/7/3
s 16
f 5/13/4 3/14/4 10/10/4
f 5/13/4 10/10/4 9/9/4
s 31
f 2/15/5 1/16/6 12/12/7
f 2/15/5 12/12/7 11/11/5
f 4/17/8 5/13/8 9/9/8
f 4/17/8 9/9/8 8/18/8
f 7/19/9 12/12/7 1/16/6
f 7/19/9 1/16/6 6/20/9
s 2
f 13/4/1 14/5/1 3/3/1
f 13/4/1 3/3/1 15/1/1
f 3/3/1 2/2/1 15/1/1
f 16/6/1 13/4/1 15/1/1
s 4
f 17/9/2 18/8/2 19/7/2
f 17/9/2 19/7/2 10/10/2
f 11/11/2 10/10/2 19/7/2
f 11/11/2 19/7/2 20/12/2
s 8
f 16/6/10 19/7/10 18/8/10
f 16/6/10 18/8/10 13/4/10
s 16
f 14/13/4 17/9/4 10/10/4
f 14/13/4 10/10/4 3/14/4
s 31
f 2/15/5 11/11/5 20/12/11
f 2/15/5 20/12/11 15/16/12
f 13/17/13 18/18/13 17/9/13
f 13/17/13 17/9/13 14/13/13
f 19/19/14 16/20/14 15/16/12
f 19/19/14 15/16/12 20/12/11
# 36 triangles in group

# 36 triangles total

