# Wavefront OBJ exported by MilkShape 3D

v 0.886814 0.031200 0.000018
v 0.886814 0.031200 0.068373
v -0.415398 0.031200 0.068373
v -0.415398 0.031200 0.000018
v 0.886814 0.243878 0.000018
v -0.415398 0.243878 0.000018
v -0.415398 0.243878 0.068373
v 0.886814 0.243878 0.068373
v 0.767223 0.193433 -0.003754
v 0.767223 0.193433 -0.033077
v 0.908252 0.193433 -0.033077
v 0.908252 0.193433 -0.003754
v 0.767223 0.269997 -0.003754
v 0.908252 0.269997 -0.003754
v 0.908252 0.269997 -0.033077
v 0.767223 0.269997 -0.033077
v -0.129174 0.334482 -0.106464
v -0.129174 0.334482 -0.135201
v -0.193317 0.193371 -0.135201
v -0.193317 0.193371 -0.106464
v -0.088699 0.316121 -0.106464
v -0.152844 0.175011 -0.106464
v -0.152844 0.175011 -0.135201
v -0.088699 0.316121 -0.135201
v -0.118060 0.193433 -0.115650
v -0.118060 0.193433 -0.057004
v -0.259091 0.193433 -0.057004
v -0.259091 0.193433 -0.115650
v -0.118060 0.269997 -0.115650
v -0.259091 0.269997 -0.115650
v -0.259091 0.269997 -0.057004
v -0.118060 0.269997 -0.057004
v -0.530945 -0.232260 0.000018
v -0.530945 -0.232260 -0.057460
v -0.257150 0.083054 -0.057460
v -0.257150 0.083054 0.000018
v -0.624892 -0.150846 0.000018
v -0.351099 0.164468 0.000018
v -0.351099 0.164468 -0.057460
v -0.624892 -0.150846 -0.057460
v -0.259513 -0.066532 0.000018
v -0.262755 0.036720 0.000018
v -0.262755 0.036720 -0.013145
v -0.259513 -0.066532 -0.013145
v -0.225006 0.054723 -0.013145
v -0.225006 0.054723 0.000018
v -0.221767 -0.048531 0.000018
v -0.221767 -0.048531 -0.013145
v -0.415398 0.031200 -0.068335
v 0.886814 0.031200 -0.068335
v 0.886814 0.243878 -0.068335
v -0.415398 0.243878 -0.068335
v 0.767223 0.193433 0.003792
v 0.908252 0.193433 0.003792
v 0.908252 0.193433 0.033115
v 0.767223 0.193433 0.033115
v 0.767223 0.269997 0.003792
v 0.767223 0.269997 0.033115
v 0.908252 0.269997 0.033115
v 0.908252 0.269997 0.003792
v -0.196291 0.279371 0.106502
v -0.351348 0.274509 0.106502
v -0.351348 0.274509 0.135240
v -0.196291 0.279371 0.135240
v -0.194896 0.234986 0.106502
v -0.194896 0.234986 0.135240
v -0.349953 0.230124 0.135240
v -0.349953 0.230124 0.106502
v -0.250174 0.193433 0.115688
v -0.391203 0.193433 0.115688
v -0.391203 0.193433 0.057040
v -0.250174 0.193433 0.057040
v -0.250174 0.269997 0.115688
v -0.250174 0.269997 0.057040
v -0.391203 0.269997 0.057040
v -0.391203 0.269997 0.115688
v -0.257150 0.083054 0.057496
v -0.530945 -0.232260 0.057496
v -0.624892 -0.150846 0.057496
v -0.351099 0.164468 0.057496
v -0.259513 -0.066532 0.013183
v -0.262755 0.036720 0.013183
v -0.225006 0.054723 0.013183
v -0.221767 -0.048531 0.013183
v -0.445107 0.193433 -0.003754
v -0.445107 0.193433 -0.033077
v -0.304079 0.193433 -0.033077
v -0.304079 0.193433 -0.003754
v -0.445107 0.269997 -0.003754
v -0.304079 0.269997 -0.003754
v -0.304079 0.269997 -0.033077
v -0.445107 0.269997 -0.033077
v -0.445107 0.193433 0.003792
v -0.304079 0.193433 0.003792
v -0.304079 0.193433 0.033115
v -0.445107 0.193433 0.033115
v -0.445107 0.269997 0.003792
v -0.445107 0.269997 0.033115
v -0.304079 0.269997 0.033115
v -0.304079 0.269997 0.003792
v 0.322132 -0.017066 0.000018
v 0.322132 -0.017066 -0.092944
v 0.784677 -0.017066 -0.092944
v 0.784677 -0.017066 0.000018
v 0.322132 0.133936 0.000018
v 0.784677 0.133936 0.000018
v 0.784677 0.133936 -0.092944
v 0.322132 0.133936 -0.092944
v 0.784677 -0.017066 0.092980
v 0.322132 -0.017066 0.092980
v 0.322132 0.133936 0.092980
v 0.784677 0.133936 0.092980
# 112 vertices

vt 0.229500 0.938000
vt 0.187100 0.937900
vt 0.188800 0.131000
vt 0.231200 0.131100
vt 0.012900 0.937500
vt 0.014500 0.130700
vt 0.056900 0.130800
vt 0.055200 0.937600
vt 0.055200 0.980000
vt 0.187100 0.980300
vt 0.057000 0.088400
vt 0.188900 0.088700
vt 0.989400 0.878100
vt 0.953400 0.878100
vt 0.953400 0.705300
vt 0.989400 0.705300
vt 0.989400 0.438600
vt 0.989400 0.611400
vt 0.953400 0.611400
vt 0.953400 0.438600
vt 0.859500 0.878100
vt 0.859500 0.705300
vt 0.989400 0.972000
vt 0.953400 0.972000
vt 0.610900 0.160100
vt 0.610800 0.113400
vt 0.862700 0.113400
vt 0.862700 0.160100
vt 0.610900 0.232300
vt 0.862700 0.232300
vt 0.862700 0.278900
vt 0.610900 0.278900
vt 0.610800 0.041300
vt 0.862700 0.041300
vt 0.538700 0.278900
vt 0.538700 0.232300
vt 0.934800 0.232300
vt 0.934800 0.278900
vt 0.282900 0.847400
vt 0.336700 0.847400
vt 0.336700 0.976600
vt 0.282900 0.976600
vt 0.460700 0.847400
vt 0.460700 0.976600
vt 0.406900 0.976600
vt 0.406900 0.847400
vt 0.336700 0.793600
vt 0.336700 0.664300
vt 0.406900 0.664300
vt 0.406900 0.793600
vt 0.336700 0.610600
vt 0.406900 0.610600
vt 0.714200 0.920800
vt 0.662200 0.920800
vt 0.662200 0.543200
vt 0.714200 0.543200
vt 0.497800 0.920800
vt 0.497800 0.543200
vt 0.549800 0.543200
vt 0.549800 0.920800
vt 0.549800 0.972800
vt 0.662200 0.972800
vt 0.862700 0.148900
vt 0.610900 0.148900
vt 0.610900 0.243400
vt 0.862700 0.243400
vt 0.538700 0.243400
vt 0.934800 0.243400
vt 0.251500 0.119400
vt 0.321800 0.119400
vt 0.321800 0.469000
vt 0.251500 0.469000
vt 0.506300 0.119400
vt 0.506300 0.469000
vt 0.436000 0.469000
vt 0.436000 0.119400
vt 0.436000 0.049100
vt 0.321800 0.049100
vt 0.436000 0.539300
vt 0.321800 0.539300
# 80 texture coordinates

vn 0.000000 -1.000000 0.000000
vn 0.000000 1.000000 0.000000
vn 0.000000 0.000000 1.000000
vn 1.000000 0.000000 0.000000
vn -1.000000 0.000000 0.000000
vn -0.000000 0.000000 -1.000000
vn -0.910363 0.413810 0.000000
vn 0.910358 -0.413822 0.000000
vn 0.413101 0.910685 0.000000
vn -0.413118 -0.910677 0.000000
vn 0.755068 -0.655646 0.000000
vn -0.755071 0.655643 0.000000
vn -0.654903 -0.755713 0.000000
vn -0.999508 -0.031377 0.000000
vn 0.999508 0.031353 0.000000
vn -0.430478 0.902601 0.000000
vn 0.430456 -0.902611 0.000000
vn -0.031341 0.999509 0.000000
vn 0.031339 -0.999509 0.000000
# 19 normals

g Box001
s 2
f 1/1/1 2/2/1 3/3/1
f 1/1/1 3/3/1 4/4/1
s 4
f 5/5/2 6/6/2 7/7/2
f 5/5/2 7/7/2 8/8/2
s 8
f 8/8/3 7/7/3 3/3/3
f 8/8/3 3/3/3 2/2/3
s 16
f 5/9/4 8/8/4 2/2/4
f 5/9/4 2/2/4 1/10/4
s 31
f 7/7/5 6/11/5 4/12/5
f 7/7/5 4/12/5 3/3/5
s 2
f 9/13/1 10/14/1 11/15/1
f 9/13/1 11/15/1 12/16/1
s 4
f 13/17/2 14/18/2 15/19/2
f 13/17/2 15/19/2 16/20/2
s 8
f 16/21/6 15/22/6 11/15/6
f 16/21/6 11/15/6 10/14/6
s 16
f 13/23/5 16/24/5 10/14/5
f 13/23/5 10/14/5 9/13/5
s 31
f 15/19/4 14/18/4 12/16/4
f 15/19/4 12/16/4 11/15/4
s 2
f 17/25/7 18/26/7 19/27/7
f 17/25/7 19/27/7 20/28/7
s 4
f 21/29/8 22/30/8 23/31/8
f 21/29/8 23/31/8 24/32/8
s 8
f 24/33/6 23/34/6 19/27/6
f 24/33/6 19/27/6 18/26/6
s 16
f 21/29/9 24/32/9 18/35/9
f 21/29/9 18/35/9 17/36/9
s 32
f 22/30/6 21/29/6 17/25/6
f 22/30/6 17/25/6 20/28/6
s 31
f 23/31/10 22/30/10 20/37/10
f 23/31/10 20/37/10 19/38/10
s 2
f 25/39/1 26/40/1 27/41/1
f 25/39/1 27/41/1 28/42/1
s 4
f 29/43/2 30/44/2 31/45/2
f 29/43/2 31/45/2 32/46/2
s 8
f 25/47/6 28/48/6 30/49/6
f 25/47/6 30/49/6 29/50/6
s 16
f 28/48/5 27/51/5 31/52/5
f 28/48/5 31/52/5 30/49/5
s 32
f 27/41/6 26/40/6 32/46/6
f 27/41/6 32/46/6 31/45/6
s 31
f 26/40/4 25/47/4 29/50/4
f 26/40/4 29/50/4 32/46/4
s 2
f 33/53/11 34/54/11 35/55/11
f 33/53/11 35/55/11 36/56/11
s 4
f 37/57/12 38/58/12 39/59/12
f 37/57/12 39/59/12 40/60/12
s 8
f 40/60/6 39/59/6 35/55/6
f 40/60/6 35/55/6 34/54/6
s 16
f 37/61/13 40/60/13 34/54/13
f 37/61/13 34/54/13 33/62/13
s 2
f 41/63/14 42/64/14 43/26/14
f 41/63/14 43/26/14 44/27/14
s 4
f 45/32/15 46/65/15 47/66/15
f 45/32/15 47/66/15 48/31/15
s 8
f 45/33/6 48/34/6 44/27/6
f 45/33/6 44/27/6 43/26/6
s 16
f 42/67/16 46/65/16 45/32/16
f 42/67/16 45/32/16 43/35/16
s 31
f 44/38/17 48/31/17 47/66/17
f 44/38/17 47/66/17 41/68/17
s 2
f 1/1/1 4/4/1 49/3/1
f 1/1/1 49/3/1 50/2/1
s 4
f 5/5/2 51/8/2 52/7/2
f 5/5/2 52/7/2 6/6/2
s 8
f 51/8/6 50/2/6 49/3/6
f 51/8/6 49/3/6 52/7/6
s 16
f 5/9/4 1/10/4 50/2/4
f 5/9/4 50/2/4 51/8/4
s 31
f 52/7/5 49/3/5 4/12/5
f 52/7/5 4/12/5 6/11/5
s 2
f 53/13/1 54/16/1 55/15/1
f 53/13/1 55/15/1 56/14/1
s 4
f 57/17/2 58/20/2 59/19/2
f 57/17/2 59/19/2 60/18/2
s 8
f 58/21/3 56/14/3 55/15/3
f 58/21/3 55/15/3 59/22/3
s 16
f 57/23/5 53/13/5 56/14/5
f 57/23/5 56/14/5 58/24/5
s 31
f 59/19/4 55/15/4 54/16/4
f 59/19/4 54/16/4 60/18/4
s 2
f 61/25/18 62/28/18 63/27/18
f 61/25/18 63/27/18 64/26/18
s 4
f 65/29/19 66/32/19 67/31/19
f 65/29/19 67/31/19 68/30/19
s 8
f 66/33/3 64/26/3 63/27/3
f 66/33/3 63/27/3 67/34/3
s 16
f 65/29/15 61/36/15 64/35/15
f 65/29/15 64/35/15 66/32/15
s 32
f 68/30/3 62/28/3 61/25/3
f 68/30/3 61/25/3 65/29/3
s 31
f 67/31/14 63/38/14 62/37/14
f 67/31/14 62/37/14 68/30/14
s 2
f 69/39/1 70/42/1 71/41/1
f 69/39/1 71/41/1 72/40/1
s 4
f 73/43/2 74/46/2 75/45/2
f 73/43/2 75/45/2 76/44/2
s 8
f 69/47/3 73/50/3 76/49/3
f 69/47/3 76/49/3 70/48/3
s 16
f 70/48/5 76/49/5 75/52/5
f 70/48/5 75/52/5 71/51/5
s 32
f 71/41/3 75/45/3 74/46/3
f 71/41/3 74/46/3 72/40/3
s 31
f 72/40/4 74/46/4 73/50/4
f 72/40/4 73/50/4 69/47/4
s 2
f 33/53/11 36/56/11 77/55/11
f 33/53/11 77/55/11 78/54/11
s 4
f 37/57/12 79/60/12 80/59/12
f 37/57/12 80/59/12 38/58/12
s 8
f 79/60/3 78/54/3 77/55/3
f 79/60/3 77/55/3 80/59/3
s 16
f 37/61/13 33/62/13 78/54/13
f 37/61/13 78/54/13 79/60/13
s 2
f 41/63/14 81/27/14 82/26/14
f 41/63/14 82/26/14 42/64/14
s 4
f 83/32/15 84/31/15 47/66/15
f 83/32/15 47/66/15 46/65/15
s 8
f 83/33/3 82/26/3 81/27/3
f 83/33/3 81/27/3 84/34/3
s 16
f 42/67/16 82/35/16 83/32/16
f 42/67/16 83/32/16 46/65/16
s 31
f 81/38/17 41/68/17 47/66/17
f 81/38/17 47/66/17 84/31/17
s 2
f 85/13/1 86/14/1 87/15/1
f 85/13/1 87/15/1 88/16/1
s 4
f 89/17/2 90/18/2 91/19/2
f 89/17/2 91/19/2 92/20/2
s 8
f 92/21/6 91/22/6 87/15/6
f 92/21/6 87/15/6 86/14/6
s 16
f 89/23/5 92/24/5 86/14/5
f 89/23/5 86/14/5 85/13/5
s 31
f 91/19/4 90/18/4 88/16/4
f 91/19/4 88/16/4 87/15/4
s 2
f 93/13/1 94/16/1 95/15/1
f 93/13/1 95/15/1 96/14/1
s 4
f 97/17/2 98/20/2 99/19/2
f 97/17/2 99/19/2 100/18/2
s 8
f 98/21/3 96/14/3 95/15/3
f 98/21/3 95/15/3 99/22/3
s 16
f 97/23/5 93/13/5 96/14/5
f 97/23/5 96/14/5 98/24/5
s 31
f 99/19/4 95/15/4 94/16/4
f 99/19/4 94/16/4 100/18/4
# 144 triangles in group

g Object001
s 2
f 101/69/1 102/70/1 103/71/1
f 101/69/1 103/71/1 104/72/1
s 4
f 105/73/2 106/74/2 107/75/2
f 105/73/2 107/75/2 108/76/2
s 8
f 108/76/6 107/75/6 103/71/6
f 108/76/6 103/71/6 102/70/6
s 16
f 105/77/5 108/76/5 102/70/5
f 105/77/5 102/70/5 101/78/5
s 31
f 107/75/4 106/79/4 104/80/4
f 107/75/4 104/80/4 103/71/4
s 2
f 101/69/1 104/72/1 109/71/1
f 101/69/1 109/71/1 110/70/1
s 4
f 105/73/2 111/76/2 112/75/2
f 105/73/2 112/75/2 106/74/2
s 8
f 111/76/3 110/70/3 109/71/3
f 111/76/3 109/71/3 112/75/3
s 16
f 105/77/5 101/78/5 110/70/5
f 105/77/5 110/70/5 111/76/5
s 31
f 112/75/4 109/71/4 104/80/4
f 112/75/4 104/80/4 106/79/4
# 20 triangles in group

# 164 triangles total

