# Wavefront OBJ exported by MilkShape 3D

v 0.448394 0.040620 -0.503335
v 0.507790 0.046874 -0.437189
v 0.290510 0.093872 -0.208195
v 0.193188 0.083624 -0.316581
v 0.438914 0.130668 -0.503335
v 0.177654 0.231172 -0.316581
v 0.274976 0.241420 -0.208195
v 0.498310 0.136922 -0.437189
v 0.161998 0.164546 -0.504215
v 0.552368 0.164546 0.068909
v -0.086728 0.164546 0.504215
v -0.477098 0.164546 -0.068909
v 0.161998 0.249236 -0.504215
v -0.477098 0.249236 -0.068909
v -0.086728 0.249236 0.504215
v 0.552368 0.249236 0.068909
v -0.135482 0.000000 -0.489621
v 0.505578 0.000000 -0.225231
v 0.210752 0.000000 0.489621
v -0.430306 0.000000 0.225231
v -0.135482 0.143278 -0.489621
v -0.430306 0.143278 0.225231
v 0.210752 0.143278 0.489621
v 0.505578 0.143278 -0.225231
v 0.582226 0.004852 0.300031
v 0.540020 0.004852 0.378523
v 0.253342 0.074342 0.256685
v 0.322498 0.074342 0.128069
v 0.582226 0.095398 0.300031
v 0.322498 0.222706 0.128069
v 0.253342 0.222706 0.256685
v 0.540020 0.095398 0.378523
v -0.554216 0.004852 0.217833
v -0.582226 0.004852 0.133229
v -0.296696 0.074342 0.008725
v -0.250802 0.074342 0.147355
v -0.554216 0.095398 0.217833
v -0.250802 0.222706 0.147355
v -0.296696 0.222706 0.008725
v -0.582226 0.095398 0.133229
# 40 vertices

vt 0.591800 0.945200
vt 0.558600 0.920100
vt 0.637800 0.798200
vt 0.687600 0.835800
vt 0.555200 0.693100
vt 0.697500 0.677800
vt 0.690900 0.745300
vt 0.563400 0.735500
vt 0.546700 0.770000
vt 0.544800 0.715400
vt 0.519300 0.749200
vt 0.534500 0.659200
vt 0.660400 0.621100
vt 0.727100 0.778700
vt 0.040800 0.905800
vt 0.040800 0.738600
vt 0.227300 0.738600
vt 0.227300 0.905800
vt 0.727000 0.362800
vt 0.949100 0.363200
vt 0.948700 0.562400
vt 0.726600 0.562000
vt 0.948700 0.586700
vt 0.726600 0.586300
vt 0.702300 0.561900
vt 0.702700 0.362700
vt 0.727000 0.338400
vt 0.949200 0.338900
vt 0.973400 0.363200
vt 0.973100 0.562400
vt 0.040800 0.680100
vt 0.040800 0.512800
vt 0.227300 0.512800
vt 0.227300 0.680100
vt 0.744700 0.075500
vt 0.939400 0.075500
vt 0.939500 0.250200
vt 0.744700 0.250200
vt 0.939500 0.286300
vt 0.744700 0.286300
vt 0.708600 0.250200
vt 0.708600 0.075500
vt 0.744700 0.039500
vt 0.939400 0.039400
vt 0.975500 0.075500
vt 0.975500 0.250200
# 46 texture coordinates

vn -0.059182 -0.987438 0.146504
vn 0.183390 0.949538 -0.254451
vn 0.731105 0.076970 0.677909
vn 0.738138 0.077709 -0.670160
vn -0.596300 -0.062800 -0.800300
vn -0.738149 -0.077713 0.670147
vn 0.000000 -1.000000 0.000000
vn 0.000000 1.000000 0.000000
vn 0.562947 0.000000 0.826493
vn 0.826493 0.000000 -0.562947
vn -0.562900 -0.000000 -0.826500
vn -0.826493 0.000000 0.562947
vn 0.924462 0.000000 0.381275
vn 0.381273 0.000000 -0.924463
vn -0.924500 0.000000 -0.381300
vn -0.381274 0.000000 0.924462
vn -0.192535 -0.975814 -0.103527
vn 0.334406 0.925117 0.179811
vn -0.391140 0.000000 0.920331
vn 0.880747 0.000000 0.473587
vn 0.552100 0.000000 -0.833800
vn -0.880753 0.000000 -0.473575
vn 0.207528 -0.975813 -0.068705
vn -0.360445 0.925116 0.119330
vn -0.399699 0.000000 -0.916646
vn -0.949325 0.000000 0.314295
vn 0.226300 0.000000 0.974100
vn 0.949331 0.000000 -0.314280
# 28 normals

g Box004
s 2
f 1/1/1 2/2/1 3/3/1
f 1/1/1 3/3/1 4/4/1
s 4
f 5/5/2 6/6/2 7/7/2
f 5/5/2 7/7/2 8/8/2
s 8
f 8/8/3 7/7/3 3/3/3
f 8/8/3 3/3/3 2/9/3
s 16
f 5/10/4 8/8/4 2/9/4
f 5/10/4 2/9/4 1/11/4
s 32
f 6/6/5 5/5/5 1/12/5
f 6/6/5 1/12/5 4/13/5
s 31
f 7/7/6 6/14/6 4/4/6
f 7/7/6 4/4/6 3/3/6
s 2
f 9/15/7 10/16/7 11/17/7
f 9/15/7 11/17/7 12/18/7
s 4
f 13/19/8 14/20/8 15/21/8
f 13/19/8 15/21/8 16/22/8
s 8
f 16/22/9 15/21/9 11/23/9
f 16/22/9 11/23/9 10/24/9
s 16
f 13/19/10 16/22/10 10/25/10
f 13/19/10 10/25/10 9/26/10
s 32
f 14/20/11 13/19/11 9/27/11
f 14/20/11 9/27/11 12/28/11
s 31
f 15/21/12 14/20/12 12/29/12
f 15/21/12 12/29/12 11/30/12
s 2
f 17/31/7 18/32/7 19/33/7
f 17/31/7 19/33/7 20/34/7
s 4
f 21/35/8 22/36/8 23/37/8
f 21/35/8 23/37/8 24/38/8
s 8
f 24/38/13 23/37/13 19/39/13
f 24/38/13 19/39/13 18/40/13
s 16
f 21/35/14 24/38/14 18/41/14
f 21/35/14 18/41/14 17/42/14
s 32
f 22/36/15 21/35/15 17/43/15
f 22/36/15 17/43/15 20/44/15
s 31
f 23/37/16 22/36/16 20/45/16
f 23/37/16 20/45/16 19/46/16
s 2
f 25/1/17 26/2/17 27/3/17
f 25/1/17 27/3/17 28/4/17
s 4
f 29/5/18 30/6/18 31/7/18
f 29/5/18 31/7/18 32/8/18
s 8
f 32/8/19 31/7/19 27/3/19
f 32/8/19 27/3/19 26/9/19
s 16
f 29/10/20 32/8/20 26/9/20
f 29/10/20 26/9/20 25/11/20
s 32
f 30/6/21 29/5/21 25/12/21
f 30/6/21 25/12/21 28/13/21
s 31
f 31/7/22 30/14/22 28/4/22
f 31/7/22 28/4/22 27/3/22
s 2
f 33/1/23 34/2/23 35/3/23
f 33/1/23 35/3/23 36/4/23
s 4
f 37/5/24 38/6/24 39/7/24
f 37/5/24 39/7/24 40/8/24
s 8
f 40/8/25 39/7/25 35/3/25
f 40/8/25 35/3/25 34/9/25
s 16
f 37/10/26 40/8/26 34/9/26
f 37/10/26 34/9/26 33/11/26
s 32
f 38/6/27 37/5/27 33/12/27
f 38/6/27 33/12/27 36/13/27
s 31
f 39/7/28 38/14/28 36/4/28
f 39/7/28 36/4/28 35/3/28
# 60 triangles in group

# 60 triangles total

