# 3ds Max Wavefront OBJ Exporter v0.97b - (c)2007 guruware
# File Created: 10.08.2014 17:35:10

mtllib assualt rifle.mtl

#
# object Box011
#

v  15.1066 -1.4278 -66.2096
v  15.1066 -1.4278 -63.0763
v  -22.1244 -1.4278 -63.0763
v  -22.1244 -1.4278 -66.2096
v  15.1066 8.5405 -66.2096
v  -22.1244 8.5405 -66.2096
v  -22.1244 8.5405 -63.0763
v  15.1066 8.5405 -63.0763
v  41.6763 -0.0898 -65.2696
v  41.6763 -0.0898 -63.0763
v  36.8362 -0.0898 -63.0763
v  36.8362 -0.0898 -65.2696
v  41.6763 9.8785 -65.2696
v  36.8362 9.8785 -65.2696
v  36.8362 9.8785 -63.0763
v  41.6763 9.8785 -63.0763
v  40.1070 -4.6575 -66.8624
v  40.1070 -4.6575 -63.0763
v  5.6721 -4.6575 -63.0763
v  5.6721 -4.6575 -66.8624
v  40.1070 6.2643 -66.8624
v  5.6721 6.2643 -66.8624
v  5.6721 6.2643 -63.0763
v  40.1070 6.2643 -63.0763
v  11.0013 -3.3163 -64.3766
v  11.0013 -3.3163 -63.0763
v  13.7496 -12.1269 -63.0763
v  13.7496 -12.1269 -64.3766
v  7.8948 -4.2853 -64.3766
v  10.6431 -13.0959 -64.3766
v  10.6431 -13.0959 -63.0763
v  7.8948 -4.2853 -63.0763
v  22.7923 -2.7408 -64.2572
v  22.7923 -2.7408 -63.0763
v  18.6691 -11.5896 -63.0763
v  18.6691 -11.5896 -64.2572
v  20.6641 -1.7491 -64.2572
v  16.5410 -10.5979 -64.2572
v  16.5410 -10.5979 -63.0763
v  20.6641 -1.7491 -63.0763
v  21.0270 -11.6445 -64.9978
v  21.0270 -11.6445 -63.0763
v  0.5476 -15.5332 -63.0763
v  0.5476 -15.5332 -64.9978
v  20.5978 -9.3839 -64.9978
v  0.1183 -13.2727 -64.9978
v  0.1183 -13.2727 -63.0763
v  20.5978 -9.3839 -63.0763
v  -9.0751 2.8173 -65.3999
v  -9.0751 2.8173 -63.0763
v  3.3368 -18.2605 -63.0763
v  3.3368 -18.2605 -65.3999
v  -14.7197 -0.5066 -65.3999
v  -2.3079 -21.5844 -65.3999
v  -2.3079 -21.5844 -63.0763
v  -14.7197 -0.5066 -63.0763
v  -4.6344 -8.7846 -65.8506
v  -4.6344 -8.7846 -63.0763
v  -20.8188 -8.7846 -63.0763
v  -20.8188 -8.7846 -65.8506
v  -4.6344 -0.1165 -65.8506
v  -20.8188 -0.1165 -65.8506
v  -20.8188 -0.1165 -63.0763
v  -4.6344 -0.1165 -63.0763
v  4.3856 15.6888 -64.2572
v  4.3856 15.6888 -63.0763
v  8.9224 7.0447 -63.0763
v  8.9224 7.0447 -64.2572
v  2.3066 14.5976 -64.2572
v  6.8435 5.9536 -64.2572
v  6.8435 5.9536 -63.0763
v  2.3066 14.5976 -63.0763
v  6.4585 13.8953 -64.5642
v  6.4585 13.8953 -63.0763
v  -13.8700 14.0365 -63.0763
v  -13.8700 14.0365 -64.5642
v  6.4748 16.2431 -64.5642
v  -13.8537 16.3843 -64.5642
v  -13.8537 16.3843 -63.0763
v  6.4748 16.2431 -63.0763
v  -11.3096 14.7338 -64.2572
v  -11.3096 14.7338 -63.0763
v  -17.0735 6.8547 -63.0763
v  -17.0735 6.8547 -64.2572
v  -13.2046 16.1200 -64.2572
v  -18.9685 8.2409 -64.2572
v  -18.9685 8.2409 -63.0763
v  -13.2046 16.1200 -63.0763
v  18.0484 5.2919 -64.8310
v  18.0484 5.2919 -63.0763
v  13.4988 5.2919 -63.0763
v  13.4988 5.2919 -64.8310
v  18.0484 9.6580 -64.8310
v  13.4988 9.6580 -64.8310
v  13.4988 9.6580 -63.0763
v  18.0484 9.6580 -63.0763
v  15.1066 -1.4278 -59.9431
v  -22.1244 -1.4278 -59.9431
v  15.1066 8.5405 -59.9431
v  -22.1244 8.5405 -59.9431
v  41.6763 -0.0898 -60.8830
v  36.8362 -0.0898 -60.8830
v  41.6763 9.8785 -60.8830
v  36.8362 9.8785 -60.8830
v  40.1070 -4.6575 -59.2903
v  5.6721 -4.6575 -59.2903
v  40.1070 6.2643 -59.2903
v  5.6721 6.2643 -59.2903
v  11.0013 -3.3163 -61.7761
v  13.7496 -12.1269 -61.7761
v  7.8948 -4.2853 -61.7761
v  10.6431 -13.0959 -61.7761
v  22.7923 -2.7408 -61.8955
v  18.6691 -11.5896 -61.8955
v  20.6641 -1.7491 -61.8955
v  16.5410 -10.5979 -61.8955
v  21.0270 -11.6445 -61.1548
v  0.5476 -15.5332 -61.1548
v  20.5978 -9.3839 -61.1548
v  0.1183 -13.2727 -61.1548
v  -9.0751 2.8173 -60.7528
v  3.3368 -18.2605 -60.7528
v  -14.7197 -0.5066 -60.7528
v  -2.3079 -21.5844 -60.7528
v  -4.6344 -8.7846 -60.3021
v  -20.8188 -8.7846 -60.3021
v  -4.6344 -0.1165 -60.3021
v  -20.8188 -0.1165 -60.3021
v  4.3856 15.6888 -61.8955
v  8.9224 7.0447 -61.8955
v  2.3066 14.5976 -61.8955
v  6.8435 5.9536 -61.8955
v  6.4585 13.8953 -61.5885
v  -13.8700 14.0365 -61.5885
v  6.4748 16.2431 -61.5885
v  -13.8537 16.3843 -61.5885
v  -11.3096 14.7338 -61.8955
v  -17.0735 6.8547 -61.8955
v  -13.2046 16.1200 -61.8955
v  -18.9685 8.2409 -61.8955
v  18.0484 5.2919 -61.3217
v  13.4988 5.2919 -61.3217
v  18.0484 9.6580 -61.3217
v  13.4988 9.6580 -61.3217
# 144 vertices

vn 0.0000 -1.0000 -0.0000
vn 0.0000 1.0000 -0.0000
vn 1.0000 0.0000 -0.0000
vn 0.0000 0.0000 -1.0000
vn -1.0000 0.0000 -0.0000
vn 0.9546 0.2978 -0.0000
vn -0.9546 -0.2978 -0.0000
vn 0.9064 -0.4224 -0.0000
vn -0.9064 0.4224 -0.0000
vn 0.1866 -0.9824 -0.0000
vn -0.1866 0.9824 -0.0000
vn 0.9824 0.1866 -0.0000
vn -0.9824 -0.1866 -0.0000
vn 0.8617 0.5074 -0.0000
vn -0.8617 -0.5074 -0.0000
vn -0.5074 0.8617 -0.0000
vn 0.5074 -0.8617 -0.0000
vn 0.8855 0.4647 -0.0000
vn -0.8855 -0.4647 -0.0000
vn -0.0069 -1.0000 -0.0000
vn 0.0069 1.0000 -0.0000
vn 1.0000 -0.0069 -0.0000
vn -1.0000 0.0069 -0.0000
vn 0.8071 -0.5904 -0.0000
vn -0.8071 0.5904 -0.0000
vn 0.0000 0.0000 1.0000
# 26 vertex normals

vt 0.2320 0.3628 0.0000
vt 0.2900 0.3628 0.0000
vt 0.2900 0.9355 0.0000
vt 0.2320 0.9355 0.0000
vt 0.0787 0.3628 0.0000
vt 0.0787 0.9355 0.0000
vt 0.0208 0.9355 0.0000
vt 0.0208 0.3628 0.0000
vt 0.0787 0.3048 0.0000
vt 0.2320 0.3048 0.0000
vt 0.0787 0.9934 0.0000
vt 0.2320 0.9934 0.0000
vt 0.6125 0.5705 0.0000
vt 0.6125 0.5149 0.0000
vt 0.7145 0.5149 0.0000
vt 0.7145 0.5705 0.0000
vt 0.6125 0.7804 0.0000
vt 0.7145 0.7804 0.0000
vt 0.7145 0.8359 0.0000
vt 0.6125 0.8359 0.0000
vt 0.5570 0.7804 0.0000
vt 0.5570 0.5705 0.0000
vt 0.7700 0.7804 0.0000
vt 0.7700 0.5705 0.0000
vt 0.3574 0.7781 0.0000
vt 0.3038 0.7781 0.0000
vt 0.3038 0.3720 0.0000
vt 0.3574 0.3720 0.0000
vt 0.4863 0.7781 0.0000
vt 0.4862 0.3720 0.0000
vt 0.5399 0.3720 0.0000
vt 0.5399 0.7781 0.0000
vt 0.4863 0.8317 0.0000
vt 0.3574 0.8317 0.0000
vt 0.4862 0.3183 0.0000
vt 0.3574 0.3183 0.0000
vt 0.5646 0.3845 0.0000
vt 0.5646 0.3480 0.0000
vt 0.7806 0.3480 0.0000
vt 0.7806 0.3845 0.0000
vt 0.5646 0.4607 0.0000
vt 0.7806 0.4607 0.0000
vt 0.7806 0.4973 0.0000
vt 0.5646 0.4973 0.0000
vt 0.9546 0.0147 0.0000
vt 0.9898 0.0147 0.0000
vt 0.9898 0.2568 0.0000
vt 0.9546 0.2568 0.0000
vt 0.8963 0.0147 0.0000
vt 0.8963 0.2568 0.0000
vt 0.8611 0.2568 0.0000
vt 0.8611 0.0147 0.0000
vt 0.8907 0.8384 0.0000
vt 0.8300 0.8357 0.0000
vt 0.8300 0.3352 0.0000
vt 0.8907 0.3378 0.0000
vt 0.9459 0.8384 0.0000
vt 0.9459 0.3378 0.0000
vt 0.9961 0.3352 0.0000
vt 0.9961 0.8357 0.0000
vt 0.9407 0.8912 0.0000
vt 0.8854 0.8912 0.0000
vt 0.9407 0.2797 0.0000
vt 0.8854 0.2797 0.0000
vt 0.8171 0.0357 0.0000
vt 0.8467 0.0357 0.0000
vt 0.8467 0.2949 0.0000
vt 0.8171 0.2949 0.0000
vt 0.7477 0.0357 0.0000
vt 0.7477 0.2949 0.0000
vt 0.7181 0.2949 0.0000
vt 0.7181 0.0357 0.0000
vt 0.7477 0.0061 0.0000
vt 0.8171 0.0061 0.0000
vt 0.7477 0.3244 0.0000
vt 0.8171 0.3244 0.0000
vt 0.0688 0.0798 0.0000
vt 0.0688 0.0245 0.0000
vt 0.3374 0.0245 0.0000
vt 0.3374 0.0798 0.0000
vt 0.0688 0.2236 0.0000
vt 0.3374 0.2236 0.0000
vt 0.3374 0.2790 0.0000
vt 0.0688 0.2790 0.0000
vt 0.0135 0.2236 0.0000
vt 0.0135 0.0798 0.0000
vt 0.3927 0.2236 0.0000
vt 0.3927 0.0798 0.0000
vt 0.3396 0.8968 0.0000
vt 0.3396 0.8576 0.0000
vt 0.7855 0.8576 0.0000
vt 0.7855 0.8968 0.0000
vt 0.3396 0.9483 0.0000
vt 0.7855 0.9483 0.0000
vt 0.7855 0.9875 0.0000
vt 0.3396 0.9875 0.0000
vt 0.3004 0.9483 0.0000
vt 0.3004 0.8968 0.0000
vt 0.8247 0.9483 0.0000
vt 0.8247 0.8968 0.0000
vt 0.4575 0.0800 0.0000
vt 0.4575 0.0207 0.0000
vt 0.5855 0.0207 0.0000
vt 0.5855 0.0800 0.0000
vt 0.4575 0.2029 0.0000
vt 0.5855 0.2029 0.0000
vt 0.5855 0.2622 0.0000
vt 0.4575 0.2622 0.0000
vt 0.3982 0.2029 0.0000
vt 0.3982 0.0800 0.0000
vt 0.6449 0.2029 0.0000
vt 0.6449 0.0800 0.0000
vt 0.8854 0.8357 0.0000
vt 0.8854 0.3352 0.0000
vt 0.9407 0.8357 0.0000
vt 0.9407 0.3352 0.0000
# 116 texture coords

g Box011
usemtl Material__8
s 2
f 1/1/1 2/2/1 3/3/1 4/4/1 
s 4
f 5/5/2 6/6/2 7/7/2 8/8/2 
s 16
f 5/5/3 8/9/3 2/10/3 1/1/3 
s 32
f 6/6/4 5/5/4 1/1/4 4/4/4 
s 64
f 7/11/5 6/6/5 4/4/5 3/12/5 
s 2
f 9/13/1 10/14/1 11/15/1 12/16/1 
s 4
f 13/17/2 14/18/2 15/19/2 16/20/2 
s 16
f 13/17/3 16/21/3 10/22/3 9/13/3 
s 32
f 14/18/4 13/17/4 9/13/4 12/16/4 
s 64
f 15/23/5 14/18/5 12/16/5 11/24/5 
s 2
f 17/25/1 18/26/1 19/27/1 20/28/1 
s 4
f 21/29/2 22/30/2 23/31/2 24/32/2 
s 16
f 21/29/3 24/33/3 18/34/3 17/25/3 
s 32
f 22/30/4 21/29/4 17/25/4 20/28/4 
s 64
f 23/35/5 22/30/5 20/28/5 19/36/5 
s 2
f 25/37/6 26/38/6 27/39/6 28/40/6 
s 4
f 29/41/7 30/42/7 31/43/7 32/44/7 
s 32
f 30/42/4 29/41/4 25/37/4 28/40/4 
s 2
f 33/45/8 34/46/8 35/47/8 36/48/8 
s 4
f 37/49/9 38/50/9 39/51/9 40/52/9 
s 32
f 38/50/4 37/49/4 33/45/4 36/48/4 
s 2
f 41/53/10 42/54/10 43/55/10 44/56/10 
s 4
f 45/57/11 46/58/11 47/59/11 48/60/11 
s 16
f 45/57/12 48/61/12 42/62/12 41/53/12 
s 32
f 46/58/4 45/57/4 41/53/4 44/56/4 
s 64
f 47/63/13 46/58/13 44/56/13 43/64/13 
s 2
f 49/65/14 50/66/14 51/67/14 52/68/14 
s 4
f 53/69/15 54/70/15 55/71/15 56/72/15 
s 16
f 53/69/16 56/73/16 50/74/16 49/65/16 
s 32
f 54/70/4 53/69/4 49/65/4 52/68/4 
s 64
f 55/75/17 54/70/17 52/68/17 51/76/17 
s 2
f 57/77/1 58/78/1 59/79/1 60/80/1 
s 4
f 61/81/2 62/82/2 63/83/2 64/84/2 
s 16
f 61/81/3 64/85/3 58/86/3 57/77/3 
s 32
f 62/82/4 61/81/4 57/77/4 60/80/4 
s 64
f 63/87/5 62/82/5 60/80/5 59/88/5 
s 2
f 65/45/18 66/46/18 67/47/18 68/48/18 
s 4
f 69/49/19 70/50/19 71/51/19 72/52/19 
s 32
f 70/50/4 69/49/4 65/45/4 68/48/4 
s 2
f 73/89/20 74/90/20 75/91/20 76/92/20 
s 4
f 77/93/21 78/94/21 79/95/21 80/96/21 
s 16
f 77/93/22 80/97/22 74/98/22 73/89/22 
s 32
f 78/94/4 77/93/4 73/89/4 76/92/4 
s 64
f 79/99/23 78/94/23 76/92/23 75/100/23 
s 2
f 81/45/24 82/46/24 83/47/24 84/48/24 
s 4
f 85/49/25 86/50/25 87/51/25 88/52/25 
s 32
f 86/50/4 85/49/4 81/45/4 84/48/4 
s 2
f 89/101/1 90/102/1 91/103/1 92/104/1 
s 4
f 93/105/2 94/106/2 95/107/2 96/108/2 
s 16
f 93/105/3 96/109/3 90/110/3 89/101/3 
s 32
f 94/106/4 93/105/4 89/101/4 92/104/4 
s 64
f 95/111/5 94/106/5 92/104/5 91/112/5 
s 2
f 97/1/1 98/4/1 3/3/1 2/2/1 
s 4
f 99/5/2 8/8/2 7/7/2 100/6/2 
s 16
f 99/5/3 97/1/3 2/10/3 8/9/3 
s 32
f 100/6/26 98/4/26 97/1/26 99/5/26 
s 64
f 7/11/5 3/12/5 98/4/5 100/6/5 
s 2
f 101/13/1 102/16/1 11/15/1 10/14/1 
s 4
f 103/17/2 16/20/2 15/19/2 104/18/2 
s 16
f 103/17/3 101/13/3 10/22/3 16/21/3 
s 32
f 104/18/26 102/16/26 101/13/26 103/17/26 
s 64
f 15/23/5 11/24/5 102/16/5 104/18/5 
s 2
f 105/25/1 106/28/1 19/27/1 18/26/1 
s 4
f 107/29/2 24/32/2 23/31/2 108/30/2 
s 16
f 107/29/3 105/25/3 18/34/3 24/33/3 
s 32
f 108/30/26 106/28/26 105/25/26 107/29/26 
s 64
f 23/35/5 19/36/5 106/28/5 108/30/5 
s 2
f 109/37/6 110/40/6 27/39/6 26/38/6 
s 4
f 111/41/7 32/44/7 31/43/7 112/42/7 
s 32
f 112/42/26 110/40/26 109/37/26 111/41/26 
s 2
f 113/45/8 114/48/8 35/47/8 34/46/8 
s 4
f 115/49/9 40/52/9 39/51/9 116/50/9 
s 32
f 116/50/26 114/48/26 113/45/26 115/49/26 
s 2
f 117/113/10 118/114/10 43/55/10 42/54/10 
s 4
f 119/115/11 48/60/11 47/59/11 120/116/11 
s 16
f 119/115/12 117/113/12 42/62/12 48/61/12 
s 32
f 120/116/26 118/114/26 117/113/26 119/115/26 
s 64
f 47/63/13 43/64/13 118/114/13 120/116/13 
s 2
f 121/65/14 122/68/14 51/67/14 50/66/14 
s 4
f 123/69/15 56/72/15 55/71/15 124/70/15 
s 16
f 123/69/16 121/65/16 50/74/16 56/73/16 
s 32
f 124/70/26 122/68/26 121/65/26 123/69/26 
s 64
f 55/75/17 51/76/17 122/68/17 124/70/17 
s 2
f 125/77/1 126/80/1 59/79/1 58/78/1 
s 4
f 127/81/2 64/84/2 63/83/2 128/82/2 
s 16
f 127/81/3 125/77/3 58/86/3 64/85/3 
s 32
f 128/82/26 126/80/26 125/77/26 127/81/26 
s 64
f 63/87/5 59/88/5 126/80/5 128/82/5 
s 2
f 129/45/18 130/48/18 67/47/18 66/46/18 
s 4
f 131/49/19 72/52/19 71/51/19 132/50/19 
s 32
f 132/50/26 130/48/26 129/45/26 131/49/26 
s 2
f 133/89/20 134/92/20 75/91/20 74/90/20 
s 4
f 135/93/21 80/96/21 79/95/21 136/94/21 
s 16
f 135/93/22 133/89/22 74/98/22 80/97/22 
s 32
f 136/94/26 134/92/26 133/89/26 135/93/26 
s 64
f 79/99/23 75/100/23 134/92/23 136/94/23 
s 2
f 137/45/24 138/48/24 83/47/24 82/46/24 
s 4
f 139/49/25 88/52/25 87/51/25 140/50/25 
s 32
f 140/50/26 138/48/26 137/45/26 139/49/26 
s 2
f 141/101/1 142/104/1 91/103/1 90/102/1 
s 4
f 143/105/2 96/108/2 95/107/2 144/106/2 
s 16
f 143/105/3 141/101/3 90/110/3 96/109/3 
s 32
f 144/106/26 142/104/26 141/101/26 143/105/26 
s 64
f 95/111/5 91/112/5 142/104/5 144/106/5 
# 104 polygons

