# 3ds Max Wavefront OBJ Exporter v0.97b - (c)2007 guruware
# File Created: 10.08.2014 00:39:16

mtllib laser rifile.mtl

#
# object Box008
#

v  25.8171 2.0153 -38.2849
v  25.8171 2.0153 -34.9199
v  11.0726 2.0153 -34.9199
v  11.0726 2.0153 -38.2849
v  25.8171 12.2799 -38.2849
v  11.0726 12.2799 -38.2849
v  11.0726 12.2799 -34.9199
v  25.8171 12.2799 -34.9199
v  11.6891 2.0153 -38.8602
v  11.6891 2.0153 -34.9199
v  -23.7669 2.0153 -34.9199
v  -23.7669 2.0153 -38.8602
v  11.6891 11.6084 -38.8602
v  -23.7669 11.6084 -38.8602
v  -23.7669 11.6084 -34.9199
v  11.6891 11.6084 -34.9199
v  -4.0991 -1.1176 -37.4657
v  -4.0991 -1.1176 -34.9199
v  -26.4364 -1.1176 -34.9199
v  -26.4364 -1.1176 -37.4657
v  -4.0991 3.7001 -37.4657
v  -26.4364 3.7001 -37.4657
v  -26.4364 3.7001 -34.9199
v  -4.0991 3.7001 -34.9199
v  17.5121 18.8134 -38.7329
v  17.5121 18.8134 -34.9199
v  5.1121 18.5122 -34.9199
v  5.1121 18.5122 -38.7329
v  17.3450 25.6932 -38.7329
v  4.9450 25.3920 -38.7329
v  4.9450 25.3920 -34.9199
v  17.3450 25.6932 -34.9199
v  16.4870 15.4944 -37.0368
v  16.4870 15.4944 -34.9199
v  8.0616 15.2897 -34.9199
v  8.0616 15.2897 -37.0368
v  16.4103 18.6508 -37.0368
v  7.9849 18.4461 -37.0368
v  7.9849 18.4461 -34.9199
v  16.4103 18.6508 -34.9199
v  47.7529 -9.0170 -38.2445
v  47.7529 -9.0170 -34.9199
v  31.7580 -9.0170 -34.9199
v  31.7580 -9.0170 -38.2445
v  47.7529 8.0929 -38.2445
v  31.7580 8.0929 -38.2445
v  31.7580 8.0929 -34.9199
v  47.7529 8.0929 -34.9199
v  22.0558 8.6228 -37.1260
v  22.0558 8.6228 -34.9199
v  40.7007 8.7886 -34.9199
v  40.7007 8.7886 -37.1260
v  22.1010 3.5402 -37.1260
v  40.7459 3.7060 -37.1260
v  40.7459 3.7060 -34.9199
v  22.1010 3.5402 -34.9199
v  4.6643 2.2410 -36.1030
v  4.6643 2.2410 -34.9199
v  -4.3051 -16.8939 -34.9199
v  -4.3051 -16.8939 -36.1030
v  -2.8823 5.7784 -36.1030
v  -11.8517 -13.3564 -36.1030
v  -11.8517 -13.3564 -34.9199
v  -2.8823 5.7784 -34.9199
v  -3.3767 6.7311 -37.7175
v  -3.3767 6.7311 -34.9199
v  -25.7140 6.7311 -34.9199
v  -25.7140 6.7311 -37.7175
v  -3.3767 15.6527 -37.7175
v  -25.7140 15.6527 -37.7175
v  -25.7140 15.6527 -34.9199
v  -3.3767 15.6527 -34.9199
v  14.1765 4.9268 -36.8293
v  14.1765 4.9268 -34.9199
v  37.3146 -8.6894 -34.9199
v  37.3146 -8.6894 -36.8293
v  11.8553 0.9823 -36.8293
v  34.9934 -12.6339 -36.8293
v  34.9934 -12.6339 -34.9199
v  11.8553 0.9823 -34.9199
v  20.6954 7.6133 -37.4937
v  20.6954 7.6133 -34.9199
v  3.4957 7.6133 -34.9199
v  3.4957 7.6133 -37.4937
v  20.6954 14.1261 -37.4937
v  3.4957 14.1261 -37.4937
v  3.4957 14.1261 -34.9199
v  20.6954 14.1261 -34.9199
v  12.6661 15.6333 -36.5236
v  12.6661 15.6333 -34.9199
v  5.9897 10.4900 -34.9199
v  5.9897 10.4900 -36.5236
v  10.7392 18.1346 -36.5236
v  4.0628 12.9912 -36.5236
v  4.0628 12.9912 -34.9199
v  10.7392 18.1346 -34.9199
v  25.9048 -4.1192 -35.9628
v  25.9048 -4.1192 -34.9199
v  20.7772 -15.0583 -34.9199
v  20.7772 -15.0583 -35.9628
v  22.3766 -2.4653 -35.9628
v  17.2489 -13.4044 -35.9628
v  17.2489 -13.4044 -34.9199
v  22.3766 -2.4653 -34.9199
v  25.8171 2.0153 -31.5550
v  11.0726 2.0153 -31.5550
v  25.8171 12.2799 -31.5550
v  11.0726 12.2799 -31.5550
v  11.6891 2.0153 -30.9797
v  -23.7669 2.0153 -30.9797
v  11.6891 11.6084 -30.9797
v  -23.7669 11.6084 -30.9797
v  -4.0991 -1.1176 -32.3741
v  -26.4364 -1.1176 -32.3741
v  -4.0991 3.7001 -32.3741
v  -26.4364 3.7001 -32.3741
v  17.5121 18.8134 -31.1069
v  5.1121 18.5122 -31.1069
v  17.3450 25.6932 -31.1069
v  4.9450 25.3920 -31.1069
v  16.4870 15.4944 -32.8030
v  8.0616 15.2897 -32.8030
v  16.4103 18.6508 -32.8030
v  7.9849 18.4461 -32.8030
v  47.7529 -9.0170 -31.5953
v  31.7580 -9.0170 -31.5953
v  47.7529 8.0929 -31.5953
v  31.7580 8.0929 -31.5953
v  22.0558 8.6228 -32.7139
v  40.7007 8.7886 -32.7139
v  22.1010 3.5402 -32.7139
v  40.7459 3.7060 -32.7139
v  4.6643 2.2410 -33.7369
v  -4.3051 -16.8939 -33.7369
v  -2.8823 5.7784 -33.7369
v  -11.8517 -13.3564 -33.7369
v  -3.3767 6.7311 -32.1224
v  -25.7140 6.7311 -32.1224
v  -3.3767 15.6527 -32.1224
v  -25.7140 15.6527 -32.1224
v  14.1765 4.9268 -33.0106
v  37.3146 -8.6894 -33.0106
v  11.8553 0.9823 -33.0106
v  34.9934 -12.6339 -33.0106
v  20.6954 7.6133 -32.3462
v  3.4957 7.6133 -32.3462
v  20.6954 14.1261 -32.3462
v  3.4957 14.1261 -32.3462
v  12.6661 15.6333 -33.3162
v  5.9897 10.4900 -33.3162
v  10.7392 18.1346 -33.3162
v  4.0628 12.9912 -33.3162
v  25.9048 -4.1192 -33.8770
v  20.7772 -15.0583 -33.8770
v  22.3766 -2.4653 -33.8770
v  17.2489 -13.4044 -33.8770
# 156 vertices

vn 0.0000 -1.0000 -0.0000
vn 0.0000 1.0000 -0.0000
vn 1.0000 0.0000 -0.0000
vn 0.0000 0.0000 -1.0000
vn -1.0000 0.0000 -0.0000
vn 0.0243 -0.9997 -0.0000
vn -0.0243 0.9997 -0.0000
vn 0.9997 0.0243 -0.0000
vn -0.9997 -0.0243 -0.0000
vn -0.0089 1.0000 -0.0000
vn 0.0089 -1.0000 -0.0000
vn -1.0000 -0.0089 -0.0000
vn 1.0000 0.0089 -0.0000
vn 0.9055 -0.4244 -0.0000
vn -0.9055 0.4244 -0.0000
vn 0.4244 0.9055 -0.0000
vn -0.4244 -0.9055 -0.0000
vn 0.5072 0.8618 -0.0000
vn -0.5072 -0.8618 -0.0000
vn -0.8618 0.5072 -0.0000
vn 0.8618 -0.5072 -0.0000
vn 0.6103 -0.7922 -0.0000
vn -0.6103 0.7922 -0.0000
vn 0.7922 0.6103 -0.0000
vn -0.7922 -0.6103 -0.0000
vn 0.0000 0.0000 1.0000
# 26 vertex normals

vt 0.3258 0.4317 0.0000
vt 0.2980 0.4317 0.0000
vt 0.2980 0.2763 0.0000
vt 0.3258 0.2763 0.0000
vt 0.3258 0.0127 0.0000
vt 0.3258 0.1681 0.0000
vt 0.2980 0.1681 0.0000
vt 0.2980 0.0127 0.0000
vt 0.3258 0.5399 0.0000
vt 0.2980 0.5399 0.0000
vt 0.4340 0.2763 0.0000
vt 0.4340 0.4317 0.0000
vt 0.2167 0.0584 0.0000
vt 0.2663 0.0584 0.0000
vt 0.2663 0.6273 0.0000
vt 0.2167 0.6273 0.0000
vt 0.0627 0.0584 0.0000
vt 0.0627 0.6273 0.0000
vt 0.0131 0.6273 0.0000
vt 0.0131 0.0584 0.0000
vt 0.0627 0.0088 0.0000
vt 0.2167 0.0088 0.0000
vt 0.0627 0.6769 0.0000
vt 0.2167 0.6769 0.0000
vt 0.8838 0.7883 0.0000
vt 0.8516 0.7883 0.0000
vt 0.8516 0.4285 0.0000
vt 0.8838 0.4285 0.0000
vt 0.9614 0.7883 0.0000
vt 0.9614 0.4285 0.0000
vt 0.9936 0.4285 0.0000
vt 0.9936 0.7883 0.0000
vt 0.9936 0.8659 0.0000
vt 0.9614 0.8659 0.0000
vt 0.9614 0.3509 0.0000
vt 0.9936 0.3509 0.0000
vt 0.2766 0.6394 0.0000
vt 0.2766 0.5893 0.0000
vt 0.4843 0.5893 0.0000
vt 0.4843 0.6394 0.0000
vt 0.2766 0.7546 0.0000
vt 0.4843 0.7546 0.0000
vt 0.4843 0.8047 0.0000
vt 0.2766 0.8047 0.0000
vt 0.2265 0.7546 0.0000
vt 0.2265 0.6394 0.0000
vt 0.5344 0.7546 0.0000
vt 0.5344 0.6394 0.0000
vt 0.6474 0.6311 0.0000
vt 0.6779 0.6311 0.0000
vt 0.6779 0.7862 0.0000
vt 0.6474 0.7862 0.0000
vt 0.5892 0.6311 0.0000
vt 0.5892 0.7862 0.0000
vt 0.5587 0.7862 0.0000
vt 0.5587 0.6311 0.0000
vt 0.5892 0.6006 0.0000
vt 0.6474 0.6006 0.0000
vt 0.5892 0.8168 0.0000
vt 0.6473 0.8168 0.0000
vt 0.6974 0.0661 0.0000
vt 0.6974 0.0244 0.0000
vt 0.9528 0.0244 0.0000
vt 0.9528 0.0661 0.0000
vt 0.6974 0.3393 0.0000
vt 0.9528 0.3393 0.0000
vt 0.9528 0.3809 0.0000
vt 0.6974 0.3809 0.0000
vt 0.6558 0.3393 0.0000
vt 0.6558 0.0661 0.0000
vt 0.9945 0.3393 0.0000
vt 0.9945 0.0661 0.0000
vt 0.8123 0.4276 0.0000
vt 0.8434 0.4276 0.0000
vt 0.8434 0.7622 0.0000
vt 0.8123 0.7622 0.0000
vt 0.7211 0.4276 0.0000
vt 0.7211 0.7622 0.0000
vt 0.6901 0.7622 0.0000
vt 0.6900 0.4276 0.0000
vt 0.7211 0.3965 0.0000
vt 0.8123 0.3965 0.0000
vt 0.7211 0.7933 0.0000
vt 0.8123 0.7933 0.0000
vt 0.4824 0.3673 0.0000
vt 0.4685 0.3671 0.0000
vt 0.4723 0.0490 0.0000
vt 0.4862 0.0492 0.0000
vt 0.6079 0.3688 0.0000
vt 0.6117 0.0507 0.0000
vt 0.6256 0.0509 0.0000
vt 0.6218 0.3689 0.0000
vt 0.6077 0.3827 0.0000
vt 0.4823 0.3812 0.0000
vt 0.6118 0.0367 0.0000
vt 0.4864 0.0352 0.0000
vt 0.3312 0.8824 0.0000
vt 0.3312 0.8606 0.0000
vt 0.5522 0.8606 0.0000
vt 0.5522 0.8824 0.0000
vt 0.2429 0.8824 0.0000
vt 0.0218 0.8824 0.0000
vt 0.0218 0.8606 0.0000
vt 0.2429 0.8606 0.0000
vt 0.5522 0.9707 0.0000
vt 0.3312 0.9707 0.0000
vt 0.6405 0.8606 0.0000
vt 0.6405 0.8824 0.0000
vt 0.5968 0.9155 0.0000
vt 0.5968 0.8967 0.0000
vt 0.9328 0.8967 0.0000
vt 0.9328 0.9155 0.0000
vt 0.5968 0.9728 0.0000
vt 0.9328 0.9728 0.0000
vt 0.9328 0.9915 0.0000
vt 0.5968 0.9915 0.0000
vt 0.5781 0.9728 0.0000
vt 0.5781 0.9155 0.0000
vt 0.9516 0.9728 0.0000
vt 0.9516 0.9155 0.0000
vt 0.3485 0.4697 0.0000
vt 0.3485 0.4455 0.0000
vt 0.5545 0.4455 0.0000
vt 0.5545 0.4697 0.0000
vt 0.3485 0.5477 0.0000
vt 0.5545 0.5477 0.0000
vt 0.5545 0.5719 0.0000
vt 0.3485 0.5719 0.0000
vt 0.2704 0.5719 0.0000
vt 0.2704 0.5477 0.0000
vt 0.6325 0.5477 0.0000
vt 0.6325 0.5719 0.0000
vt 0.0596 0.9113 0.0000
vt 0.0596 0.8927 0.0000
vt 0.1844 0.8927 0.0000
vt 0.1844 0.9113 0.0000
vt 0.0596 0.9581 0.0000
vt 0.1844 0.9581 0.0000
vt 0.1844 0.9767 0.0000
vt 0.0596 0.9767 0.0000
vt 0.0409 0.9581 0.0000
vt 0.0409 0.9113 0.0000
vt 0.2030 0.9581 0.0000
vt 0.2030 0.9113 0.0000
vt 0.0367 0.7713 0.0000
vt 0.0367 0.7588 0.0000
vt 0.2218 0.7593 0.0000
vt 0.2217 0.7718 0.0000
vt 0.0366 0.8310 0.0000
vt 0.2216 0.8315 0.0000
vt 0.2216 0.8440 0.0000
vt 0.0365 0.8436 0.0000
vt 0.0240 0.8310 0.0000
vt 0.0242 0.7713 0.0000
vt 0.2341 0.8315 0.0000
vt 0.2343 0.7718 0.0000
# 156 texture coords

g Box008
usemtl Material__4
s 2
f 1/1/1 2/2/1 3/3/1 4/4/1 
s 4
f 5/5/2 6/6/2 7/7/2 8/8/2 
s 16
f 5/9/3 8/10/3 2/2/3 1/1/3 
s 32
f 6/11/4 5/12/4 1/1/4 4/4/4 
s 64
f 7/7/5 6/6/5 4/4/5 3/3/5 
s 2
f 9/13/1 10/14/1 11/15/1 12/16/1 
s 4
f 13/17/2 14/18/2 15/19/2 16/20/2 
s 16
f 13/17/3 16/21/3 10/22/3 9/13/3 
s 32
f 14/18/4 13/17/4 9/13/4 12/16/4 
s 64
f 15/23/5 14/18/5 12/16/5 11/24/5 
s 2
f 17/25/1 18/26/1 19/27/1 20/28/1 
s 4
f 21/29/2 22/30/2 23/31/2 24/32/2 
s 16
f 21/29/3 24/32/3 18/33/3 17/34/3 
s 32
f 22/30/4 21/29/4 17/25/4 20/28/4 
s 64
f 23/31/5 22/30/5 20/35/5 19/36/5 
s 2
f 25/37/6 26/38/6 27/39/6 28/40/6 
s 4
f 29/41/7 30/42/7 31/43/7 32/44/7 
s 16
f 29/41/8 32/45/8 26/46/8 25/37/8 
s 32
f 30/42/4 29/41/4 25/37/4 28/40/4 
s 64
f 31/47/9 30/42/9 28/40/9 27/48/9 
s 2
f 33/49/6 34/50/6 35/51/6 36/52/6 
s 4
f 37/53/7 38/54/7 39/55/7 40/56/7 
s 16
f 37/53/8 40/57/8 34/58/8 33/49/8 
s 32
f 38/54/4 37/53/4 33/49/4 36/52/4 
s 64
f 39/59/9 38/54/9 36/52/9 35/60/9 
s 2
f 41/61/1 42/62/1 43/63/1 44/64/1 
s 4
f 45/65/2 46/66/2 47/67/2 48/68/2 
s 16
f 45/65/3 48/69/3 42/70/3 41/61/3 
s 32
f 46/66/4 45/65/4 41/61/4 44/64/4 
s 64
f 47/71/5 46/66/5 44/64/5 43/72/5 
s 2
f 49/73/10 50/74/10 51/75/10 52/76/10 
s 4
f 53/77/11 54/78/11 55/79/11 56/80/11 
s 16
f 53/77/12 56/81/12 50/82/12 49/73/12 
s 32
f 54/78/4 53/77/4 49/73/4 52/76/4 
s 64
f 55/83/13 54/78/13 52/76/13 51/84/13 
s 2
f 57/85/14 58/86/14 59/87/14 60/88/14 
s 4
f 61/89/15 62/90/15 63/91/15 64/92/15 
s 16
f 61/89/16 64/93/16 58/94/16 57/85/16 
s 32
f 62/90/4 61/89/4 57/85/4 60/88/4 
s 64
f 63/95/17 62/90/17 60/88/17 59/96/17 
s 2
f 65/97/1 66/98/1 67/99/1 68/100/1 
s 4
f 69/101/2 70/102/2 71/103/2 72/104/2 
s 16
f 69/101/3 72/104/3 66/98/3 65/97/3 
s 32
f 70/105/4 69/106/4 65/97/4 68/100/4 
s 64
f 71/107/5 70/108/5 68/100/5 67/99/5 
s 2
f 73/109/18 74/110/18 75/111/18 76/112/18 
s 4
f 77/113/19 78/114/19 79/115/19 80/116/19 
s 16
f 77/113/20 80/117/20 74/118/20 73/109/20 
s 32
f 78/114/4 77/113/4 73/109/4 76/112/4 
s 64
f 79/119/21 78/114/21 76/112/21 75/120/21 
s 2
f 81/121/1 82/122/1 83/123/1 84/124/1 
s 4
f 85/125/2 86/126/2 87/127/2 88/128/2 
s 16
f 85/125/3 88/128/3 82/129/3 81/130/3 
s 32
f 86/126/4 85/125/4 81/121/4 84/124/4 
s 64
f 87/127/5 86/126/5 84/131/5 83/132/5 
s 2
f 89/133/22 90/134/22 91/135/22 92/136/22 
s 4
f 93/137/23 94/138/23 95/139/23 96/140/23 
s 16
f 93/137/24 96/141/24 90/142/24 89/133/24 
s 32
f 94/138/4 93/137/4 89/133/4 92/136/4 
s 64
f 95/143/25 94/138/25 92/136/25 91/144/25 
s 2
f 97/145/14 98/146/14 99/147/14 100/148/14 
s 4
f 101/149/15 102/150/15 103/151/15 104/152/15 
s 16
f 101/149/16 104/153/16 98/154/16 97/145/16 
s 32
f 102/150/4 101/149/4 97/145/4 100/148/4 
s 64
f 103/155/17 102/150/17 100/148/17 99/156/17 
s 2
f 105/1/1 106/4/1 3/3/1 2/2/1 
s 4
f 107/5/2 8/8/2 7/7/2 108/6/2 
s 16
f 107/9/3 105/1/3 2/2/3 8/10/3 
s 32
f 108/11/26 106/4/26 105/1/26 107/12/26 
s 64
f 7/7/5 3/3/5 106/4/5 108/6/5 
s 2
f 109/13/1 110/16/1 11/15/1 10/14/1 
s 4
f 111/17/2 16/20/2 15/19/2 112/18/2 
s 16
f 111/17/3 109/13/3 10/22/3 16/21/3 
s 32
f 112/18/26 110/16/26 109/13/26 111/17/26 
s 64
f 15/23/5 11/24/5 110/16/5 112/18/5 
s 2
f 113/25/1 114/28/1 19/27/1 18/26/1 
s 4
f 115/29/2 24/32/2 23/31/2 116/30/2 
s 16
f 115/29/3 113/34/3 18/33/3 24/32/3 
s 32
f 116/30/26 114/28/26 113/25/26 115/29/26 
s 64
f 23/31/5 19/36/5 114/35/5 116/30/5 
s 2
f 117/37/6 118/40/6 27/39/6 26/38/6 
s 4
f 119/41/7 32/44/7 31/43/7 120/42/7 
s 16
f 119/41/8 117/37/8 26/46/8 32/45/8 
s 32
f 120/42/26 118/40/26 117/37/26 119/41/26 
s 64
f 31/47/9 27/48/9 118/40/9 120/42/9 
s 2
f 121/49/6 122/52/6 35/51/6 34/50/6 
s 4
f 123/53/7 40/56/7 39/55/7 124/54/7 
s 16
f 123/53/8 121/49/8 34/58/8 40/57/8 
s 32
f 124/54/26 122/52/26 121/49/26 123/53/26 
s 64
f 39/59/9 35/60/9 122/52/9 124/54/9 
s 2
f 125/61/1 126/64/1 43/63/1 42/62/1 
s 4
f 127/65/2 48/68/2 47/67/2 128/66/2 
s 16
f 127/65/3 125/61/3 42/70/3 48/69/3 
s 32
f 128/66/26 126/64/26 125/61/26 127/65/26 
s 64
f 47/71/5 43/72/5 126/64/5 128/66/5 
s 2
f 129/73/10 130/76/10 51/75/10 50/74/10 
s 4
f 131/77/11 56/80/11 55/79/11 132/78/11 
s 16
f 131/77/12 129/73/12 50/82/12 56/81/12 
s 32
f 132/78/26 130/76/26 129/73/26 131/77/26 
s 64
f 55/83/13 51/84/13 130/76/13 132/78/13 
s 2
f 133/85/14 134/88/14 59/87/14 58/86/14 
s 4
f 135/89/15 64/92/15 63/91/15 136/90/15 
s 16
f 135/89/16 133/85/16 58/94/16 64/93/16 
s 32
f 136/90/26 134/88/26 133/85/26 135/89/26 
s 64
f 63/95/17 59/96/17 134/88/17 136/90/17 
s 2
f 137/97/1 138/100/1 67/99/1 66/98/1 
s 4
f 139/101/2 72/104/2 71/103/2 140/102/2 
s 16
f 139/101/3 137/97/3 66/98/3 72/104/3 
s 32
f 140/105/26 138/100/26 137/97/26 139/106/26 
s 64
f 71/107/5 67/99/5 138/100/5 140/108/5 
s 2
f 141/109/18 142/112/18 75/111/18 74/110/18 
s 4
f 143/113/19 80/116/19 79/115/19 144/114/19 
s 16
f 143/113/20 141/109/20 74/118/20 80/117/20 
s 32
f 144/114/26 142/112/26 141/109/26 143/113/26 
s 64
f 79/119/21 75/120/21 142/112/21 144/114/21 
s 2
f 145/121/1 146/124/1 83/123/1 82/122/1 
s 4
f 147/125/2 88/128/2 87/127/2 148/126/2 
s 16
f 147/125/3 145/130/3 82/129/3 88/128/3 
s 32
f 148/126/26 146/124/26 145/121/26 147/125/26 
s 64
f 87/127/5 83/132/5 146/131/5 148/126/5 
s 2
f 149/133/22 150/136/22 91/135/22 90/134/22 
s 4
f 151/137/23 96/140/23 95/139/23 152/138/23 
s 16
f 151/137/24 149/133/24 90/142/24 96/141/24 
s 32
f 152/138/26 150/136/26 149/133/26 151/137/26 
s 64
f 95/143/25 91/144/25 150/136/25 152/138/25 
s 2
f 153/145/14 154/148/14 99/147/14 98/146/14 
s 4
f 155/149/15 104/152/15 103/151/15 156/150/15 
s 16
f 155/149/16 153/145/16 98/154/16 104/153/16 
s 32
f 156/150/26 154/148/26 153/145/26 155/149/26 
s 64
f 103/155/17 99/156/17 154/148/17 156/150/17 
# 130 polygons

