# 3ds Max Wavefront OBJ Exporter v0.97b - (c)2007 guruware
# File Created: 10.08.2014 17:35:21

mtllib hand gun.mtl

#
# object Box009
#

v  -1.3576 0.0000 -28.2716
v  -1.3576 0.0000 -25.8242
v  -21.7265 0.0000 -25.8242
v  -21.7265 0.0000 -28.2716
v  -1.3576 8.8969 -28.2716
v  -21.7265 8.8969 -28.2716
v  -21.7265 8.8969 -25.8242
v  -1.3576 8.8969 -25.8242
v  -2.3761 -1.7385 -27.6842
v  -2.3761 -1.7385 -25.8242
v  -20.7081 -1.7385 -25.8242
v  -20.7081 -1.7385 -27.6842
v  -2.3761 0.2188 -27.6842
v  -20.7081 0.2188 -27.6842
v  -20.7081 0.2188 -25.8242
v  -2.3761 0.2188 -25.8242
v  -3.5281 -4.5158 -26.2241
v  -3.5281 -4.5158 -25.8242
v  -6.5063 -3.2935 -25.8242
v  -6.5063 -3.2935 -26.2241
v  -2.6502 -2.3764 -26.2241
v  -5.6283 -1.1542 -26.2241
v  -5.6283 -1.1542 -25.8242
v  -2.6502 -2.3764 -25.8242
v  -1.6524 4.2597 -27.4424
v  -1.6524 4.2597 -25.8242
v  4.3418 -7.6772 -25.8242
v  4.3418 -7.6772 -27.4424
v  -6.8204 1.6646 -27.4424
v  -0.8262 -10.2723 -27.4424
v  -0.8262 -10.2723 -25.8242
v  -6.8204 1.6646 -25.8242
v  -19.2279 7.7559 -26.9050
v  -19.2279 7.7559 -25.8242
v  -23.2165 7.7559 -25.8242
v  -23.2165 7.7559 -26.9050
v  -19.2279 10.4448 -26.9050
v  -23.2165 10.4448 -26.9050
v  -23.2165 10.4448 -25.8242
v  -19.2279 10.4448 -25.8242
v  0.1189 6.9988 -26.6240
v  0.1189 6.9988 -25.8242
v  -3.5711 8.5131 -25.8242
v  -3.5711 8.5131 -26.6240
v  1.1398 9.4863 -26.6240
v  -2.5502 11.0007 -26.6240
v  -2.5502 11.0007 -25.8242
v  1.1398 9.4863 -25.8242
v  -1.3576 0.0000 -23.3768
v  -21.7265 0.0000 -23.3768
v  -1.3576 8.8969 -23.3768
v  -21.7265 8.8969 -23.3768
v  -2.3761 -1.7385 -23.9641
v  -20.7081 -1.7385 -23.9641
v  -2.3761 0.2188 -23.9641
v  -20.7081 0.2188 -23.9641
v  -3.5281 -4.5158 -25.4243
v  -6.5063 -3.2935 -25.4243
v  -2.6502 -2.3764 -25.4243
v  -5.6283 -1.1542 -25.4243
v  -1.6524 4.2597 -24.2059
v  4.3418 -7.6772 -24.2059
v  -6.8204 1.6646 -24.2059
v  -0.8262 -10.2723 -24.2059
v  -19.2279 7.7559 -24.7434
v  -23.2165 7.7559 -24.7434
v  -19.2279 10.4448 -24.7434
v  -23.2165 10.4448 -24.7434
v  0.1189 6.9988 -25.0244
v  -3.5711 8.5131 -25.0244
v  1.1398 9.4863 -25.0244
v  -2.5502 11.0007 -25.0244
# 72 vertices

vn 0.0000 -1.0000 -0.0000
vn 0.0000 1.0000 -0.0000
vn 1.0000 0.0000 -0.0000
vn 0.0000 0.0000 -1.0000
vn -1.0000 0.0000 -0.0000
vn -0.3797 -0.9251 -0.0000
vn 0.3797 0.9251 -0.0000
vn 0.9251 -0.3797 -0.0000
vn -0.9251 0.3797 -0.0000
vn 0.8937 0.4488 -0.0000
vn -0.8937 -0.4488 -0.0000
vn -0.4488 0.8937 -0.0000
vn 0.4488 -0.8937 -0.0000
vn 0.0000 0.0000 1.0000
# 14 vertex normals

vt 0.3123 0.2143 0.0000
vt 0.3123 0.1435 0.0000
vt 0.9019 0.1435 0.0000
vt 0.9019 0.2143 0.0000
vt 0.3123 0.4719 0.0000
vt 0.9019 0.4719 0.0000
vt 0.9019 0.5427 0.0000
vt 0.3123 0.5427 0.0000
vt 0.2414 0.4719 0.0000
vt 0.2414 0.2143 0.0000
vt 0.9728 0.4719 0.0000
vt 0.9727 0.2143 0.0000
vt 0.1175 0.4536 0.0000
vt 0.1608 0.4536 0.0000
vt 0.1608 0.8808 0.0000
vt 0.1175 0.8808 0.0000
vt 0.0718 0.4536 0.0000
vt 0.0718 0.8808 0.0000
vt 0.0285 0.8808 0.0000
vt 0.0285 0.4536 0.0000
vt 0.1175 0.4080 0.0000
vt 0.1608 0.4080 0.0000
vt 0.0718 0.9242 0.0000
vt 0.1175 0.9242 0.0000
vt 0.0656 0.0410 0.0000
vt 0.0656 0.0179 0.0000
vt 0.2520 0.0179 0.0000
vt 0.2520 0.0410 0.0000
vt 0.0656 0.1749 0.0000
vt 0.2520 0.1749 0.0000
vt 0.2520 0.1981 0.0000
vt 0.0656 0.1981 0.0000
vt 0.0424 0.1749 0.0000
vt 0.0424 0.0410 0.0000
vt 0.2752 0.1749 0.0000
vt 0.2752 0.0410 0.0000
vt 0.2298 0.9370 0.0000
vt 0.1890 0.9370 0.0000
vt 0.1890 0.6001 0.0000
vt 0.2298 0.6001 0.0000
vt 0.3756 0.9370 0.0000
vt 0.3756 0.6001 0.0000
vt 0.4164 0.6001 0.0000
vt 0.4164 0.9370 0.0000
vt 0.3756 0.9778 0.0000
vt 0.2298 0.9778 0.0000
vt 0.3756 0.5593 0.0000
vt 0.2298 0.5593 0.0000
vt 0.6172 0.6769 0.0000
vt 0.6172 0.6031 0.0000
vt 0.8894 0.6031 0.0000
vt 0.8894 0.6769 0.0000
vt 0.6172 0.8603 0.0000
vt 0.8894 0.8603 0.0000
vt 0.8894 0.9341 0.0000
vt 0.6172 0.9341 0.0000
vt 0.5435 0.8603 0.0000
vt 0.5435 0.6769 0.0000
vt 0.9632 0.8603 0.0000
vt 0.9632 0.6769 0.0000
vt 0.0579 0.2687 0.0000
vt 0.0579 0.2415 0.0000
vt 0.1935 0.2415 0.0000
vt 0.1935 0.2687 0.0000
vt 0.0579 0.3601 0.0000
vt 0.1935 0.3601 0.0000
vt 0.1935 0.3873 0.0000
vt 0.0579 0.3873 0.0000
vt 0.0307 0.3601 0.0000
vt 0.0307 0.2687 0.0000
vt 0.2207 0.3601 0.0000
vt 0.2207 0.2687 0.0000
# 72 texture coords

g Box009
usemtl Material__6
s 2
f 1/1/1 2/2/1 3/3/1 4/4/1 
s 4
f 5/5/2 6/6/2 7/7/2 8/8/2 
s 16
f 5/5/3 8/9/3 2/10/3 1/1/3 
s 32
f 6/6/4 5/5/4 1/1/4 4/4/4 
s 64
f 7/11/5 6/6/5 4/4/5 3/12/5 
s 2
f 9/13/1 10/14/1 11/15/1 12/16/1 
s 4
f 13/17/2 14/18/2 15/19/2 16/20/2 
s 16
f 13/21/3 16/22/3 10/14/3 9/13/3 
s 32
f 14/18/4 13/17/4 9/13/4 12/16/4 
s 64
f 15/23/5 14/18/5 12/16/5 11/24/5 
s 2
f 17/25/6 18/26/6 19/27/6 20/28/6 
s 4
f 21/29/7 22/30/7 23/31/7 24/32/7 
s 16
f 21/29/8 24/33/8 18/34/8 17/25/8 
s 32
f 22/30/4 21/29/4 17/25/4 20/28/4 
s 64
f 23/35/9 22/30/9 20/28/9 19/36/9 
s 2
f 25/37/10 26/38/10 27/39/10 28/40/10 
s 4
f 29/41/11 30/42/11 31/43/11 32/44/11 
s 16
f 29/41/12 32/45/12 26/46/12 25/37/12 
s 32
f 30/42/4 29/41/4 25/37/4 28/40/4 
s 64
f 31/47/13 30/42/13 28/40/13 27/48/13 
s 2
f 33/49/1 34/50/1 35/51/1 36/52/1 
s 4
f 37/53/2 38/54/2 39/55/2 40/56/2 
s 16
f 37/53/3 40/57/3 34/58/3 33/49/3 
s 32
f 38/54/4 37/53/4 33/49/4 36/52/4 
s 64
f 39/59/5 38/54/5 36/52/5 35/60/5 
s 2
f 41/61/6 42/62/6 43/63/6 44/64/6 
s 4
f 45/65/7 46/66/7 47/67/7 48/68/7 
s 16
f 45/65/8 48/69/8 42/70/8 41/61/8 
s 32
f 46/66/4 45/65/4 41/61/4 44/64/4 
s 64
f 47/71/9 46/66/9 44/64/9 43/72/9 
s 2
f 49/1/1 50/4/1 3/3/1 2/2/1 
s 4
f 51/5/2 8/8/2 7/7/2 52/6/2 
s 16
f 51/5/3 49/1/3 2/10/3 8/9/3 
s 32
f 52/6/14 50/4/14 49/1/14 51/5/14 
s 64
f 7/11/5 3/12/5 50/4/5 52/6/5 
s 2
f 53/13/1 54/16/1 11/15/1 10/14/1 
s 4
f 55/17/2 16/20/2 15/19/2 56/18/2 
s 16
f 55/21/3 53/13/3 10/14/3 16/22/3 
s 32
f 56/18/14 54/16/14 53/13/14 55/17/14 
s 64
f 15/23/5 11/24/5 54/16/5 56/18/5 
s 2
f 57/25/6 58/28/6 19/27/6 18/26/6 
s 4
f 59/29/7 24/32/7 23/31/7 60/30/7 
s 16
f 59/29/8 57/25/8 18/34/8 24/33/8 
s 32
f 60/30/14 58/28/14 57/25/14 59/29/14 
s 64
f 23/35/9 19/36/9 58/28/9 60/30/9 
s 2
f 61/37/10 62/40/10 27/39/10 26/38/10 
s 4
f 63/41/11 32/44/11 31/43/11 64/42/11 
s 16
f 63/41/12 61/37/12 26/46/12 32/45/12 
s 32
f 64/42/14 62/40/14 61/37/14 63/41/14 
s 64
f 31/47/13 27/48/13 62/40/13 64/42/13 
s 2
f 65/49/1 66/52/1 35/51/1 34/50/1 
s 4
f 67/53/2 40/56/2 39/55/2 68/54/2 
s 16
f 67/53/3 65/49/3 34/58/3 40/57/3 
s 32
f 68/54/14 66/52/14 65/49/14 67/53/14 
s 64
f 39/59/5 35/60/5 66/52/5 68/54/5 
s 2
f 69/61/6 70/64/6 43/63/6 42/62/6 
s 4
f 71/65/7 48/68/7 47/67/7 72/66/7 
s 16
f 71/65/8 69/61/8 42/70/8 48/69/8 
s 32
f 72/66/14 70/64/14 69/61/14 71/65/14 
s 64
f 47/71/9 43/72/9 70/64/9 72/66/9 
# 60 polygons

