# 3ds Max Wavefront OBJ Exporter v0.97b - (c)2007 guruware
# File Created: 09.10.2014 22:30:57

mtllib energy drink.mtl

#
# object Box002
#

v  4.5813 0.0000 -5.0910
v  4.5813 0.0000 5.0910
v  -4.5813 0.0000 5.0910
v  -4.5813 0.0000 -5.0910
v  4.5813 36.3520 -5.0910
v  -4.5813 36.3520 -5.0910
v  -4.5813 36.3520 5.0910
v  4.5813 36.3520 5.0910
v  2.4900 36.4092 2.0298
v  2.4900 36.4092 3.8125
v  0.8858 36.4092 3.8125
v  0.8858 36.4092 2.0298
v  2.4900 42.7737 2.0298
v  0.8858 42.7737 2.0298
v  0.8858 42.7737 3.8125
v  2.4900 42.7737 3.8125
# 16 vertices

vn 0.0000 -1.0000 -0.0000
vn 0.0000 1.0000 -0.0000
vn 0.0000 0.0000 1.0000
vn 1.0000 0.0000 -0.0000
vn 0.0000 0.0000 -1.0000
vn -1.0000 0.0000 -0.0000
# 6 vertex normals

vt 0.1678 0.0359 0.0000
vt 0.3221 0.0359 0.0000
vt 0.3221 0.1748 0.0000
vt 0.1678 0.1748 0.0000
vt 0.1678 0.8643 0.0000
vt 0.1678 0.7255 0.0000
vt 0.3221 0.7255 0.0000
vt 0.3221 0.8643 0.0000
vt 0.4609 0.7255 0.0000
vt 0.4609 0.1748 0.0000
vt 0.6152 0.7255 0.0000
vt 0.6152 0.1748 0.0000
vt 0.0290 0.7255 0.0000
vt 0.0290 0.1748 0.0000
vt 0.7464 0.9741 0.0000
vt 0.7464 0.8862 0.0000
vt 0.8255 0.8862 0.0000
vt 0.8255 0.9741 0.0000
vt 0.7464 0.4843 0.0000
vt 0.8255 0.4843 0.0000
vt 0.8255 0.5723 0.0000
vt 0.7464 0.5723 0.0000
vt 0.6584 0.5723 0.0000
vt 0.6584 0.8862 0.0000
vt 0.9134 0.5723 0.0000
vt 0.9925 0.5723 0.0000
vt 0.9925 0.8862 0.0000
vt 0.9134 0.8862 0.0000
# 28 texture coords

g Box002
usemtl Material__26
s 2
f 1/1/1 2/2/1 3/3/1 4/4/1 
s 4
f 5/5/2 6/6/2 7/7/2 8/8/2 
s 8
f 8/9/3 7/7/3 3/3/3 2/10/3 
s 16
f 5/11/4 8/9/4 2/10/4 1/12/4 
s 32
f 6/6/5 5/13/5 1/14/5 4/4/5 
s 64
f 7/7/6 6/6/6 4/4/6 3/3/6 
s 2
f 9/15/1 10/16/1 11/17/1 12/18/1 
s 4
f 13/19/2 14/20/2 15/21/2 16/22/2 
s 8
f 16/22/3 15/21/3 11/17/3 10/16/3 
s 16
f 13/23/4 16/22/4 10/16/4 9/24/4 
s 32
f 14/25/5 13/26/5 9/27/5 12/28/5 
s 64
f 15/21/6 14/25/6 12/28/6 11/17/6 
# 12 polygons

